<svg height="512pt" viewBox="0 -4 512.00101 512" width="512pt" xmlns="http://www.w3.org/2000/svg"><g fill="#ffd89e"><path d="m389.972656 243.242188c11.289063 6.820312 22.910156 9.800781 37.0625 9.800781 41.355469 0 74.878906-33.523438 74.878906-74.878907 0-41.355468-33.523437-74.878906-74.878906-74.878906-12.066406 0-23.464844 2.851563-33.558594 7.921875m33.558594 100.480469c-18.515625 0-33.523437-15.007812-33.523437-33.523438 0-18.515624 15.007812-33.523437 33.523437-33.523437s33.523438 15.007813 33.523438 33.523437c0 18.515626-15.007813 33.523438-33.523438 33.523438zm0 0"/><path d="m118.523438 111.207031c-10.09375-5.070312-21.492188-7.921875-33.558594-7.921875-41.355469 0-74.878906 33.523438-74.878906 74.878906 0 41.355469 33.523437 74.878907 74.878906 74.878907 14.152344 0 26.128906-3.183594 37.414062-10.003907m-70.9375-64.875c0-18.515624 15.007813-33.523437 33.523438-33.523437s33.523437 15.007813 33.523437 33.523437c0 18.515626-15.007812 33.523438-33.523437 33.523438-18.511719 0-33.523438-15.007812-33.523438-33.523438zm0 0"/><path d="m223.617188 10.085938h167.578124c18.683594 0 33.828126 15.144531 33.828126 33.828124 0 18.679688-15.144532 33.824219-33.828126 33.824219h-269.980468c-18.683594 0-33.828125-15.144531-33.828125-33.824219 0-18.683593 15.144531-33.828124 33.828125-33.828124h20.847656"/></g><path d="m307.160156 321.199219v84.117187h-101.691406v-84.117187" fill="#d29976"/><path d="m286.4375 323.207031h-60.46875c-59.082031 0-106.976562-47.894531-106.976562-106.976562v-138.492188h274.421874v138.492188c0 59.082031-47.894531 106.976562-106.976562 106.976562zm0 0" fill="#ffc15a"/><path d="m393.414062 493.242188h-274.421874l23.863281-87.925782h226.699219zm0 0" fill="#b3b0b5"/><path d="m254.183594 120.292969 21.851562 44.316406 48.902344 7.089844-35.394531 34.476562 8.371093 48.695313-43.730468-23.007813-43.726563 23.007813 8.371094-48.695313-35.394531-34.476562 48.898437-7.089844zm0 0" fill="#ffedd1"/><path d="m427.035156 93.199219c-8.082031 0-15.949218 1.109375-23.535156 3.296875v-10.4375c18.242188-5.335938 31.605469-22.203125 31.605469-42.144532 0-24.214843-19.695313-43.914062-43.910157-43.914062h-167.578124c-12.949219 0-12.96875 20.171875 0 20.171875h167.578124c13.089844 0 23.738282 10.652344 23.738282 23.742187 0 13.085938-10.648438 23.738282-23.738282 23.738282h-269.984374c-13.089844 0-23.738282-10.652344-23.738282-23.738282 0-13.089843 10.648438-23.742187 23.738282-23.742187h20.851562c12.949219 0 12.96875-20.171875 0-20.171875h-20.851562c-24.210938 0-43.910157 19.699219-43.910157 43.914062 0 19.941407 13.363281 36.808594 31.605469 42.144532v10.550781c-7.710938-2.261719-15.71875-3.410156-23.941406-3.410156-46.847656 0-84.964844 38.113281-84.964844 84.964843 0 46.851563 38.117188 84.964844 84.964844 84.964844 11.378906 0 21.742187-1.921875 31.386718-5.824218 13.148438 34.980468 42.585938 62.050781 79.03125 71.925781v66h-52.527343c-4.554688 0-8.542969 3.050781-9.734375 7.445312l-23.859375 87.925781c-1.707031 6.28125 3.320312 12.726563 9.734375 12.726563h274.417968c6.398438 0 11.433594-6.46875 9.734376-12.726563l-23.859376-87.925781c-1.191406-4.394531-5.183593-7.445312-9.734374-7.445312h-52.308594v-66.058594c36.273437-9.90625 65.578125-36.855469 78.738281-71.675781 9.457031 3.8125 19.566406 5.632812 31.050781 5.632812 46.851563 0 84.964844-38.113281 84.964844-84.964844 0-46.847656-38.113281-84.964843-84.964844-84.964843zm-342.070312 149.757812c-35.726563 0-64.792969-29.066406-64.792969-64.792969 0-35.726562 29.066406-64.792968 64.792969-64.792968 8.328125 0 16.351562 1.558594 23.941406 4.589844v23.78125c-6.878906-4.539063-15.101562-7.1875-23.941406-7.1875-24.046875 0-43.609375 19.5625-43.609375 43.609374 0 24.046876 19.5625 43.609376 43.609375 43.609376 8.835937 0 17.0625-2.648438 23.941406-7.183594-.03125 7.753906.5625 15.488281 1.984375 23.121094-7.839844 3.554687-16.238281 5.246093-25.925781 5.246093zm23.4375-64.792969c0 12.921876-10.511719 23.4375-23.4375 23.4375-12.921875 0-23.4375-10.515624-23.4375-23.4375 0-12.921874 10.515625-23.4375 23.4375-23.4375 12.925781 0 23.4375 10.515626 23.4375 23.4375zm253.4375 237.238282 18.386718 67.753906h-248.042968l6.457031-23.792969h76.609375c12.949219 0 12.96875-20.171875 0-20.171875h-71.136719l6.457031-23.789062zm-64.765625-20.171875h-81.519531v-62.40625c26.367187 2.335937 55.152343 2.367187 81.519531-.019531zm-10.636719-82.109375h-60.46875c-51.84375 0-96.886719-45.359375-96.886719-96.890625v-128.40625h254.246094v128.410156c0 53.421875-43.464844 96.886719-96.890625 96.886719zm140.597656-70.164063c-9.761718 0-17.898437-1.585937-25.554687-5.042969 1.433593-7.621093 1.980469-15.316406 2.019531-23.0625 6.796875 4.371094 14.871094 6.921876 23.535156 6.921876 24.046875 0 43.609375-19.5625 43.609375-43.609376 0-24.046874-19.5625-43.609374-43.609375-43.609374-8.664062 0-16.738281 2.550781-23.535156 6.921874v-23.679687c7.46875-2.921875 15.355469-4.425781 23.535156-4.425781 35.726563 0 64.792969 29.066406 64.792969 64.792968 0 35.726563-29.066406 64.792969-64.792969 64.792969zm-23.4375-64.792969c0-12.921874 10.511719-23.4375 23.4375-23.4375 12.921875 0 23.4375 10.515626 23.4375 23.4375 0 12.921876-10.515625 23.4375-23.4375 23.4375-12.925781 0-23.4375-10.515624-23.4375-23.4375zm0 0"/><path d="m326.382812 161.714844-43.644531-6.324219-19.507812-39.558594c-3.578125-7.261719-14.480469-7.332031-18.09375 0l-19.503907 39.558594-43.648437 6.324219c-8.011719 1.160156-11.445313 11.503906-5.589844 17.207031l31.59375 30.777344-7.472656 43.464843c-1.371094 7.976563 7.40625 14.445313 14.636719 10.636719l39.03125-20.539062 39.03125 20.539062c7.222656 3.800781 16.019531-2.59375 14.636718-10.636719l-7.46875-43.464843 31.59375-30.777344c5.796876-5.644531 2.496094-16.035156-5.59375-17.207031zm-43.878906 37.234375c-2.378906 2.320312-3.464844 5.660156-2.902344 8.933593l4.90625 28.539063c-8.414062-4.429687-20.609374-14.515625-30.324218-14.515625-9.648438 0-21.996094 10.132812-30.320313 14.515625l4.902344-28.539063c1.777344-10.339843-17.222656-22.882812-23.640625-29.136718l28.65625-4.15625c10.382812-1.503906 16.4375-23.449219 20.402344-31.492188 3.933594 7.976563 10.050781 29.992188 20.40625 31.492188l28.65625 4.15625zm0 0"/><path d="m256.347656 439.191406c-5.480468 0-10.085937 4.605469-10.085937 10.085938 0 5.480468 4.605469 10.085937 10.085937 10.085937 5.324219 0 9.832032-4.335937 10.066406-9.644531.25-5.644531-4.40625-10.527344-10.066406-10.527344zm0 0"/><path d="m182.59375 20.175781c5.480469 0 10.085938-4.605469 10.085938-10.085937 0-5.484375-4.601563-10.08593775-10.085938-10.08593775-5.324219 0-9.832031 4.33203175-10.066406 9.64453175-.25 5.640624 4.40625 10.527343 10.066406 10.527343zm0 0"/></svg>