<svg xmlns="http://www.w3.org/2000/svg" x="0px" y="0px"
     width="64" height="64"
     viewBox="0 0 172 172"
     style=" fill:#000000;"><g fill="none" fill-rule="nonzero" stroke="none" stroke-width="1" stroke-linecap="butt" stroke-linejoin="miter" stroke-miterlimit="10" stroke-dasharray="" stroke-dashoffset="0" font-family="none" font-weight="none" font-size="none" text-anchor="none" style="mix-blend-mode: normal"><path d="M0,172v-172h172v172z" fill="none"></path><g fill="#a52978"><g id="surface1"><path d="M34.9375,21.5c-4.56665,0 -8.0625,3.49585 -8.0625,8.0625v21.5h-2.6875c-2.96045,0 -5.375,2.41455 -5.375,5.375v21.5c0,2.96045 2.41455,5.375 5.375,5.375h2.6875v64.5c0,4.56665 3.49585,8.0625 8.0625,8.0625h107.5c4.56665,0 8.0625,-3.49585 8.0625,-8.0625v-64.5h2.6875c2.96045,0 5.375,-2.41455 5.375,-5.375v-21.5c0,-3.2229 -2.41455,-5.375 -5.375,-5.375h-2.6875v-21.5c0,-4.56665 -3.49585,-8.0625 -8.0625,-8.0625zM34.9375,26.875h107.5c1.6167,0 2.6875,1.0708 2.6875,2.6875v34.9375h-112.875v-34.9375c0,-1.6167 1.0708,-2.6875 2.6875,-2.6875zM94.0625,35.07397c-0.47241,0 -0.94482,0.12598 -1.34375,0.39893l-5.375,2.6875c-1.34375,0.5354 -1.87915,2.1521 -1.34375,3.49585c0.5354,1.34375 2.1521,1.87915 3.49585,1.34375l1.34375,-0.80835v11.55835c0,1.6167 1.0708,2.6875 2.6875,2.6875c1.6167,0 2.6875,-1.0708 2.6875,-2.6875v-16.125c0.5354,-0.80835 0,-1.87915 -0.80835,-2.1521c-0.39892,-0.27295 -0.87134,-0.39893 -1.34375,-0.39893zM129,35.07397c-0.47241,0 -0.94482,0.12598 -1.34375,0.39893l-5.375,2.6875c-1.34375,0.5354 -1.87915,2.1521 -1.34375,3.49585c0.5354,1.34375 2.1521,1.87915 3.49585,1.34375l1.34375,-0.80835v11.55835c0,1.6167 1.0708,2.6875 2.6875,2.6875c1.6167,0 2.6875,-1.0708 2.6875,-2.6875v-16.125c0.5354,-0.80835 0,-1.87915 -0.80835,-2.1521c-0.39892,-0.27295 -0.87134,-0.39893 -1.34375,-0.39893zM110.1875,37.625c-1.6167,0 -2.6875,1.0708 -2.6875,2.6875v2.6875h-2.6875c-1.6167,0 -2.6875,1.0708 -2.6875,2.6875c0,1.6167 1.0708,2.6875 2.6875,2.6875h2.6875v2.6875c0,1.6167 1.0708,2.6875 2.6875,2.6875c1.6167,0 2.6875,-1.0708 2.6875,-2.6875v-2.6875h2.6875c1.6167,0 2.6875,-1.0708 2.6875,-2.6875c0,-1.6167 -1.0708,-2.6875 -2.6875,-2.6875h-2.6875v-2.6875c0,-1.6167 -1.0708,-2.6875 -2.6875,-2.6875zM24.1875,56.4375h2.6875v21.5h-2.6875zM150.5,56.4375h2.6875v21.5h-2.6875zM32.25,69.875h112.875v77.9375c0,1.6167 -1.0708,2.6875 -2.6875,2.6875h-107.5c-1.6167,0 -2.6875,-1.0708 -2.6875,-2.6875zM48.375,75.25c-1.6167,0 -2.6875,1.0708 -2.6875,2.6875v5.375c0,1.6167 1.0708,2.6875 2.6875,2.6875c1.6167,0 2.6875,-1.0708 2.6875,-2.6875v-5.375c0,-1.6167 -1.0708,-2.6875 -2.6875,-2.6875zM61.8125,75.25c-1.6167,0 -2.6875,1.0708 -2.6875,2.6875v5.375c0,1.6167 1.0708,2.6875 2.6875,2.6875c1.6167,0 2.6875,-1.0708 2.6875,-2.6875v-5.375c0,-1.6167 -1.0708,-2.6875 -2.6875,-2.6875zM75.25,75.25c-1.6167,0 -2.6875,1.0708 -2.6875,2.6875v5.375c0,1.6167 1.0708,2.6875 2.6875,2.6875c1.6167,0 2.6875,-1.0708 2.6875,-2.6875v-5.375c0,-1.6167 -1.0708,-2.6875 -2.6875,-2.6875zM88.6875,75.25c-1.6167,0 -2.6875,1.0708 -2.6875,2.6875v5.375c0,1.6167 1.0708,2.6875 2.6875,2.6875c1.6167,0 2.6875,-1.0708 2.6875,-2.6875v-5.375c0,-1.6167 -1.0708,-2.6875 -2.6875,-2.6875zM102.125,75.25c-1.6167,0 -2.6875,1.0708 -2.6875,2.6875v5.375c0,1.6167 1.0708,2.6875 2.6875,2.6875c1.6167,0 2.6875,-1.0708 2.6875,-2.6875v-5.375c0,-1.6167 -1.0708,-2.6875 -2.6875,-2.6875zM115.5625,75.25c-1.6167,0 -2.6875,1.0708 -2.6875,2.6875v5.375c0,1.6167 1.0708,2.6875 2.6875,2.6875c1.6167,0 2.6875,-1.0708 2.6875,-2.6875v-5.375c0,-1.6167 -1.0708,-2.6875 -2.6875,-2.6875zM129,75.25c-1.6167,0 -2.6875,1.0708 -2.6875,2.6875v5.375c0,1.6167 1.0708,2.6875 2.6875,2.6875c1.6167,0 2.6875,-1.0708 2.6875,-2.6875v-5.375c0,-1.6167 -1.0708,-2.6875 -2.6875,-2.6875zM48.375,91.375c-2.96045,0 -5.375,2.41455 -5.375,5.375v10.75c0,2.96045 2.41455,5.375 5.375,5.375h16.125c2.96045,0 5.375,-2.41455 5.375,-5.375v-10.75c0,-2.96045 -2.41455,-5.375 -5.375,-5.375zM80.625,91.375c-2.96045,0 -5.375,2.41455 -5.375,5.375v10.75c0,2.96045 2.41455,5.375 5.375,5.375h16.125c2.96045,0 5.375,-2.41455 5.375,-5.375v-10.75c0,-2.96045 -2.41455,-5.375 -5.375,-5.375zM112.875,91.375c-2.96045,0 -5.375,2.41455 -5.375,5.375v37.625c0,2.96045 2.41455,5.375 5.375,5.375h16.125c2.96045,0 5.375,-2.41455 5.375,-5.375v-37.625c0,-2.96045 -2.41455,-5.375 -5.375,-5.375zM48.375,96.75h16.125v10.75h-16.125zM80.625,96.75h16.125v10.75h-16.125zM112.875,96.75h16.125v37.625h-16.125zM48.375,118.25c-2.96045,0 -5.375,2.41455 -5.375,5.375v10.75c0,2.96045 2.41455,5.375 5.375,5.375h16.125c2.96045,0 5.375,-2.41455 5.375,-5.375v-10.75c0,-2.96045 -2.41455,-5.375 -5.375,-5.375zM80.625,118.25c-2.96045,0 -5.375,2.41455 -5.375,5.375v10.75c0,2.96045 2.41455,5.375 5.375,5.375h16.125c2.96045,0 5.375,-2.41455 5.375,-5.375v-10.75c0,-2.96045 -2.41455,-5.375 -5.375,-5.375zM48.375,123.625h16.125v10.75h-16.125zM80.625,123.625h16.125v10.75h-16.125z"></path></g></g></g></svg>
