<svg xmlns="http://www.w3.org/2000/svg" x="0px" y="0px"
     width="64" height="64"
     viewBox="0 0 172 172"
     style=" fill:#000000;"><g fill="none" fill-rule="nonzero" stroke="none" stroke-width="1" stroke-linecap="butt" stroke-linejoin="miter" stroke-miterlimit="10" stroke-dasharray="" stroke-dashoffset="0" font-family="none" font-weight="none" font-size="none" text-anchor="none" style="mix-blend-mode: normal"><path d="M0,172v-172h172v172z" fill="none"></path><g fill="#a52978"><g id="surface1"><path d="M91.375,5.375c-0.44092,0 -0.88184,0.10498 -1.28076,0.32544l-67.1875,36.38623c-0.87134,0.47241 -1.40674,1.38574 -1.40674,2.37256v16.79688c0,0.94482 0.50391,1.81616 1.31226,2.30957c0.81885,0.48291 1.81616,0.50391 2.65601,0.05249l6.78174,-3.67432v36.24976l-25.46826,13.79443c-0.86084,0.47241 -1.40674,1.37524 -1.40674,2.36206v13.40601c0,0.94482 0.50391,1.81616 1.31226,2.30957c0.80835,0.48291 1.82666,0.50391 2.65601,0.05249l6.78174,-3.67432v36.80615h-8.0625c-1.49072,0 -2.6875,1.19678 -2.6875,2.6875c0,1.49072 1.19678,2.6875 2.6875,2.6875h107.5c1.49072,0 2.6875,-1.19678 2.6875,-2.6875c0,-1.49072 -1.19678,-2.6875 -2.6875,-2.6875h-8.0625v-10.75h51.0625c1.49072,0 2.6875,-1.19678 2.6875,-2.6875c0,-1.49072 -1.19678,-2.6875 -2.6875,-2.6875h-8.0625v-85.18115l6.78174,3.67432c0.39892,0.22046 0.83984,0.32544 1.28076,0.32544c0.47241,0 0.95532,-0.12598 1.37524,-0.37793c0.80835,-0.49341 1.31226,-1.36475 1.31226,-2.30957v-16.79687c0,-0.98682 -0.5459,-1.90015 -1.40674,-2.37256l-67.1875,-36.38623c-0.39893,-0.22046 -0.83984,-0.32544 -1.28076,-0.32544zM91.375,11.11743l64.5,34.9375v10.68701l-63.21924,-34.24463c-0.39893,-0.22046 -0.83984,-0.32544 -1.28076,-0.32544c-0.44092,0 -0.88184,0.10498 -1.28076,0.32544l-63.21924,34.24463v-10.68701zM91.375,27.9248l53.75,29.10059v61.22461h-18.8125c-1.49072,0 -2.6875,1.19678 -2.6875,2.6875c0,1.49072 1.19678,2.6875 2.6875,2.6875h18.8125v21.5h-37.625v-20.53418l6.49829,3.52734c0.39892,0.22046 0.83984,0.32544 1.28076,0.32544c0.47241,0 0.95532,-0.12598 1.37524,-0.37793c0.81885,-0.49341 1.31226,-1.36475 1.31226,-2.30957v-13.40601c0,-0.98682 -0.5459,-1.88965 -1.40674,-2.36206l-14.5188,-7.86304h2.77148c1.49072,0 2.6875,-1.19678 2.6875,-2.6875c0,-1.49072 -1.19678,-2.6875 -2.6875,-2.6875h-5.375c-1.42773,0 -2.57202,1.12329 -2.65601,2.51953l-14.58179,-7.89453h1.11279c1.49072,0 2.6875,-1.19678 2.6875,-2.6875c0,-1.49072 -1.19678,-2.6875 -2.6875,-2.6875h-5.375c-1.14429,0 -2.09961,0.71387 -2.48804,1.72168l-12.50317,-6.77124c-0.79785,-0.43042 -1.75317,-0.43042 -2.56152,0l-22.75977,12.32471v-36.24976zM56.4375,59.125c-1.49072,0 -2.6875,1.19678 -2.6875,2.6875c0,1.49072 1.19678,2.6875 2.6875,2.6875h5.375c1.49072,0 2.6875,-1.19678 2.6875,-2.6875c0,-1.49072 -1.19678,-2.6875 -2.6875,-2.6875zM77.9375,59.125c-1.49072,0 -2.6875,1.19678 -2.6875,2.6875c0,1.49072 1.19678,2.6875 2.6875,2.6875h5.375c1.49072,0 2.6875,-1.19678 2.6875,-2.6875c0,-1.49072 -1.19678,-2.6875 -2.6875,-2.6875zM99.4375,59.125c-1.49072,0 -2.6875,1.19678 -2.6875,2.6875c0,1.49072 1.19678,2.6875 2.6875,2.6875h5.375c1.49072,0 2.6875,-1.19678 2.6875,-2.6875c0,-1.49072 -1.19678,-2.6875 -2.6875,-2.6875zM120.9375,59.125c-1.49072,0 -2.6875,1.19678 -2.6875,2.6875c0,1.49072 1.19678,2.6875 2.6875,2.6875h5.375c1.49072,0 2.6875,-1.19678 2.6875,-2.6875c0,-1.49072 -1.19678,-2.6875 -2.6875,-2.6875zM56.4375,69.875c-1.49072,0 -2.6875,1.19678 -2.6875,2.6875c0,1.49072 1.19678,2.6875 2.6875,2.6875h5.375c1.49072,0 2.6875,-1.19678 2.6875,-2.6875c0,-1.49072 -1.19678,-2.6875 -2.6875,-2.6875zM77.9375,69.875c-1.49072,0 -2.6875,1.19678 -2.6875,2.6875c0,1.49072 1.19678,2.6875 2.6875,2.6875h5.375c1.49072,0 2.6875,-1.19678 2.6875,-2.6875c0,-1.49072 -1.19678,-2.6875 -2.6875,-2.6875zM99.4375,69.875c-1.49072,0 -2.6875,1.19678 -2.6875,2.6875c0,1.49072 1.19678,2.6875 2.6875,2.6875h5.375c1.49072,0 2.6875,-1.19678 2.6875,-2.6875c0,-1.49072 -1.19678,-2.6875 -2.6875,-2.6875zM120.9375,69.875c-1.49072,0 -2.6875,1.19678 -2.6875,2.6875c0,1.49072 1.19678,2.6875 2.6875,2.6875h5.375c1.49072,0 2.6875,-1.19678 2.6875,-2.6875c0,-1.49072 -1.19678,-2.6875 -2.6875,-2.6875zM99.4375,86c-1.49072,0 -2.6875,1.19678 -2.6875,2.6875c0,1.49072 1.19678,2.6875 2.6875,2.6875h5.375c1.49072,0 2.6875,-1.19678 2.6875,-2.6875c0,-1.49072 -1.19678,-2.6875 -2.6875,-2.6875zM120.9375,86c-1.49072,0 -2.6875,1.19678 -2.6875,2.6875c0,1.49072 1.19678,2.6875 2.6875,2.6875h5.375c1.49072,0 2.6875,-1.19678 2.6875,-2.6875c0,-1.49072 -1.19678,-2.6875 -2.6875,-2.6875zM61.67603,86.36743l50.91553,27.58887v7.28564l-49.64526,-26.8855c-0.38843,-0.22046 -0.82935,-0.33594 -1.27026,-0.33594c-0.45142,0 -0.88184,0.11548 -1.29126,0.33594l-49.63477,26.8855v-7.28564zM120.9375,96.75c-1.49072,0 -2.6875,1.19678 -2.6875,2.6875c0,1.49072 1.19678,2.6875 2.6875,2.6875h5.375c1.49072,0 2.6875,-1.19678 2.6875,-2.6875c0,-1.49072 -1.19678,-2.6875 -2.6875,-2.6875zM61.67603,99.77344l40.44897,21.90942v39.56714h-43.0105c0,-0.04199 0.0105,-0.09448 0.0105,-0.13647v-21.5c0,-2.96045 -2.41455,-5.375 -5.375,-5.375h-16.125c-2.96045,0 -5.375,2.41455 -5.375,5.375v21.5c0,0.04199 0.0105,0.09448 0.0105,0.13647h-10.7605v-39.72461zM34.9375,123.625c-1.49072,0 -2.6875,1.19678 -2.6875,2.6875c0,1.49072 1.19678,2.6875 2.6875,2.6875h5.375c1.49072,0 2.6875,-1.19678 2.6875,-2.6875c0,-1.49072 -1.19678,-2.6875 -2.6875,-2.6875zM51.0625,123.625c-1.49072,0 -2.6875,1.19678 -2.6875,2.6875c0,1.49072 1.19678,2.6875 2.6875,2.6875h5.375c1.49072,0 2.6875,-1.19678 2.6875,-2.6875c0,-1.49072 -1.19678,-2.6875 -2.6875,-2.6875zM67.1875,123.625c-1.49072,0 -2.6875,1.19678 -2.6875,2.6875c0,1.49072 1.19678,2.6875 2.6875,2.6875h5.375c1.49072,0 2.6875,-1.19678 2.6875,-2.6875c0,-1.49072 -1.19678,-2.6875 -2.6875,-2.6875zM83.3125,123.625c-1.49072,0 -2.6875,1.19678 -2.6875,2.6875c0,1.49072 1.19678,2.6875 2.6875,2.6875h5.375c1.49072,0 2.6875,-1.19678 2.6875,-2.6875c0,-1.49072 -1.19678,-2.6875 -2.6875,-2.6875zM67.1875,134.375c-1.49072,0 -2.6875,1.19678 -2.6875,2.6875c0,1.49072 1.19678,2.6875 2.6875,2.6875h5.375c1.49072,0 2.6875,-1.19678 2.6875,-2.6875c0,-1.49072 -1.19678,-2.6875 -2.6875,-2.6875zM83.3125,134.375c-1.49072,0 -2.6875,1.19678 -2.6875,2.6875c0,1.49072 1.19678,2.6875 2.6875,2.6875h5.375c1.49072,0 2.6875,-1.19678 2.6875,-2.6875c0,-1.49072 -1.19678,-2.6875 -2.6875,-2.6875zM37.625,139.61353h16.125v21.5h-16.125zM67.1875,145.125c-1.49072,0 -2.6875,1.19678 -2.6875,2.6875c0,1.49072 1.19678,2.6875 2.6875,2.6875h5.375c1.49072,0 2.6875,-1.19678 2.6875,-2.6875c0,-1.49072 -1.19678,-2.6875 -2.6875,-2.6875zM83.3125,145.125c-1.49072,0 -2.6875,1.19678 -2.6875,2.6875c0,1.49072 1.19678,2.6875 2.6875,2.6875h5.375c1.49072,0 2.6875,-1.19678 2.6875,-2.6875c0,-1.49072 -1.19678,-2.6875 -2.6875,-2.6875z"></path></g></g></g></svg>
