<svg xmlns="http://www.w3.org/2000/svg" x="0px" y="0px"
     width="64" height="64"
     viewBox="0 0 172 172"
     style=" fill:#000000;"><g fill="none" fill-rule="nonzero" stroke="none" stroke-width="1" stroke-linecap="butt" stroke-linejoin="miter" stroke-miterlimit="10" stroke-dasharray="" stroke-dashoffset="0" font-family="none" font-weight="none" font-size="none" text-anchor="none" style="mix-blend-mode: normal"><path d="M0,172v-172h172v172z" fill="none"></path><g fill="#a52978"><g id="surface1"><path d="M86,8.0625c-42.96851,0 -77.9375,34.96899 -77.9375,77.9375c0,42.96851 34.96899,77.9375 77.9375,77.9375c3.84229,0 7.60059,-0.27295 11.2854,-0.80835l-0.27295,3.01294c-0.12598,1.50122 0.37793,2.98145 1.40674,4.10473c1.01831,1.1023 2.44604,1.75317 3.96826,1.75317h63.9751c1.52222,0 2.94995,-0.65088 3.96826,-1.75317c1.02881,-1.12329 1.53272,-2.60352 1.40674,-4.10473l-4.90259,-53.75c-0.26245,-2.79248 -2.55103,-4.89209 -5.34351,-4.89209h-0.58789c1.98413,-6.82373 3.03393,-14.02539 3.03393,-21.5c0,-42.96851 -34.96899,-77.9375 -77.9375,-77.9375zM86,13.4375c40.01855,0 72.5625,32.54395 72.5625,72.5625c0,7.47461 -1.13379,14.69727 -3.25439,21.5h-2.33057c-1.31226,-9.10181 -9.1438,-16.125 -18.60254,-16.125c-9.45874,0 -17.29028,7.02319 -18.60254,16.125h-8.51392c-2.79248,0 -5.08105,2.09961 -5.34351,4.89209l-4.11523,45.20459c-3.84228,0.64038 -7.80005,0.96582 -11.7998,0.96582c-40.01855,0 -72.5625,-32.54395 -72.5625,-72.5625c0,-40.01855 32.54395,-72.5625 72.5625,-72.5625zM84.82422,24.2085c-15.84155,0.31494 -31.1687,6.72925 -42.52759,18.07764c-11.67383,11.68433 -18.10913,27.20044 -18.10913,43.71387c0,16.51343 6.4248,32.02954 18.09863,43.71387c0.5249,0.5144 1.21777,0.78735 1.90015,0.78735c0.69287,0 1.38574,-0.27295 1.91065,-0.78735c1.0498,-1.0603 1.0498,-2.75049 0,-3.81079c-10.66602,-10.65552 -16.53442,-24.82788 -16.53442,-39.90308c0,-15.0752 5.86841,-29.24756 16.53442,-39.90308c12.75513,-12.76562 31.02173,-18.68652 48.87891,-15.82056c1.48022,0.24146 2.84497,-0.76636 3.07593,-2.22559c0.23096,-1.46973 -0.76636,-2.85547 -2.22559,-3.08642c-3.67432,-0.58789 -7.34863,-0.83984 -11.00195,-0.75586zM106.58667,27.91431c-1.0393,0.04199 -2.01562,0.70337 -2.40405,1.74267c-0.5249,1.38574 0.17847,2.93945 1.57471,3.46436c1.91064,0.71387 3.81079,1.54321 5.63745,2.45654c0.38843,0.19946 0.80835,0.29395 1.21777,0.29395c0.97632,0 1.92114,-0.5354 2.40405,-1.48022c0.66138,-1.32275 0.12598,-2.93945 -1.19678,-3.61133c-2.00513,-1.00781 -4.08374,-1.91064 -6.18335,-2.698c-0.33594,-0.12598 -0.69287,-0.17847 -1.0498,-0.16797zM122.10278,36.75366c-0.69287,0.08398 -1.33325,0.41992 -1.79517,1.00781c-0.91333,1.16528 -0.71387,2.85547 0.46191,3.7688c1.78467,1.40674 3.51685,2.93945 5.13354,4.56665c10.66602,10.65552 16.53442,24.82788 16.53442,39.90308c0,1.48022 1.20728,2.6875 2.6875,2.6875c1.48022,0 2.6875,-1.20728 2.6875,-2.6875c0,-16.51343 -6.4248,-32.02954 -18.09863,-43.71387c-1.78467,-1.77417 -3.67432,-3.45386 -5.62695,-4.98657c-0.58789,-0.45141 -1.30176,-0.62988 -1.98413,-0.5459zM86,40.3125c-0.68237,0 -1.37524,0.26245 -1.90015,0.78735l-32.25,32.25c-1.0498,1.0498 -1.0498,2.75049 0,3.80029l10.75,10.75c1.0498,1.0498 2.75049,1.0498 3.80029,0l8.84985,-8.84985v41.88721c0,1.48022 1.20728,2.6875 2.6875,2.6875h16.125c1.48022,0 2.6875,-1.20728 2.6875,-2.6875v-41.88721l8.84985,8.84985c1.0498,1.0498 2.75049,1.0498 3.80029,0l10.75,-10.75c1.0498,-1.0498 1.0498,-2.75049 0,-3.80029l-32.25,-32.25c-0.5249,-0.5249 -1.21777,-0.78735 -1.90015,-0.78735zM86,46.80029l28.44971,28.44971l-6.94971,6.94971l-11.53735,-11.53735c-0.76636,-0.76636 -1.93164,-0.99732 -2.92895,-0.57739c-0.99732,0.40942 -1.65869,1.39624 -1.65869,2.47754v45.6875h-10.75v-45.6875c0,-1.0813 -0.66138,-2.06811 -1.65869,-2.47754c-1.00781,-0.41992 -2.1626,-0.18896 -2.92896,0.57739l-11.53735,11.53735l-6.94971,-6.94971zM134.375,96.75c6.48779,0 11.91528,4.62964 13.16455,10.75h-26.3291c1.24927,-6.12036 6.67676,-10.75 13.16455,-10.75zM107.25854,112.875h8.30396v5.375c0,1.48022 1.20728,2.6875 2.6875,2.6875c1.48022,0 2.6875,-1.20728 2.6875,-2.6875v-5.375h26.875v5.375c0,1.48022 1.20728,2.6875 2.6875,2.6875c1.48022,0 2.6875,-1.20728 2.6875,-2.6875v-5.375h8.30396l4.87109,53.75h-63.9751l0.40942,-4.51416l0.50391,-5.64795zM60.13281,130.0603c-1.0498,-0.12598 -2.11011,0.35693 -2.65601,1.32276l-2.6875,4.66113c-0.74536,1.28076 -0.30444,2.91846 0.97632,3.66382c0.41992,0.24146 0.88184,0.36743 1.34375,0.36743c0.92383,0 1.82666,-0.48291 2.32007,-1.34375l2.6875,-4.66113c0.74536,-1.28076 0.31494,-2.92896 -0.97632,-3.67432c-0.32544,-0.17847 -0.66138,-0.29395 -1.00781,-0.33594zM72.05859,135.29883c-1.02881,0.14697 -1.93164,0.89233 -2.22559,1.97363l-1.38574,5.19653c-0.38843,1.42773 0.47241,2.89746 1.90015,3.28589c0.23096,0.06299 0.47241,0.09448 0.70337,0.09448c1.18628,0 2.26758,-0.79785 2.59302,-1.99463l1.38574,-5.19653c0.38843,-1.42773 -0.46191,-2.90796 -1.88965,-3.28589c-0.36743,-0.10498 -0.73486,-0.12598 -1.0813,-0.07349zM86,137.0625c-1.48022,0 -2.6875,1.20728 -2.6875,2.6875v5.375c0,1.48022 1.20728,2.6875 2.6875,2.6875c1.48022,0 2.6875,-1.20728 2.6875,-2.6875v-5.375c0,-1.48022 -1.20728,-2.6875 -2.6875,-2.6875z"></path></g></g></g></svg>
